<svg xmlns="http://www.w3.org/2000/svg" viewBox="0 0 180 180" width="180" height="180">
  <defs>
    <linearGradient id="bgGradient" x1="0%" y1="0%" x2="100%" y2="100%">
      <stop offset="0%" style="stop-color:#667eea"/>
      <stop offset="100%" style="stop-color:#764ba2"/>
    </linearGradient>
  </defs>
  
  <!-- Rounded rectangle background for iOS -->
  <rect x="0" y="0" width="180" height="180" rx="32" ry="32" fill="url(#bgGradient)"/>
  
  <!-- Coroutine symbol - larger version -->
  <path d="M65 45 Q40 45 40 70 Q40 90 40 110 Q40 135 65 135" stroke="#ffffff" stroke-width="12" fill="none" stroke-linecap="round"/>
  
  <!-- Flow arrows representing async execution -->
  <path d="M105 60 L135 60 L125 50 M135 60 L125 70" stroke="#4facfe" stroke-width="8" fill="none" stroke-linecap="round"/>
  <path d="M105 90 L135 90 L125 80 M135 90 L125 100" stroke="#00f2fe" stroke-width="8" fill="none" stroke-linecap="round"/>
  <path d="M105 120 L135 120 L125 110 M135 120 L125 130" stroke="#4facfe" stroke-width="8" fill="none" stroke-linecap="round"/>
  
  <!-- Central connection dot -->
  <circle cx="78" cy="90" r="6" fill="#ffffff"/>
  
  <!-- Additional small dots for visual balance -->
  <circle cx="50" cy="65" r="3" fill="#ffffff" opacity="0.8"/>
  <circle cx="50" cy="115" r="3" fill="#ffffff" opacity="0.8"/>
</svg>